<svg width="696" height="225" viewBox="0 0 696 225" fill="none" xmlns="http://www.w3.org/2000/svg">
<mask id="mask0_8_78" style="mask-type:alpha" maskUnits="userSpaceOnUse" x="0" y="0" width="696" height="225">
<path d="M0 0H696V225L348 178.448L0 225V0Z" fill="#D9D9D9"/>
</mask>
<g mask="url(#mask0_8_78)">
<path d="M7.5 223.948V1.44824H39.0909V88.1201H80.9091V1.44824H112.5V209.948L80.9091 214.1V136.656H39.0909V219.785L7.5 223.948Z" fill="#FF0000"/>
<path d="M127.5 207.948V1.44824H211.364V35.9845H159.091V85.1201L202.045 79.1201V121.656L159.091 127.656V174.792L211.136 167.792V196.756L127.5 207.948Z" fill="#FF0000"/>
<path d="M222.259 1.44824H257.486L280.213 63.5869H281.122L303.849 1.44824H339.077L296.349 117.557V185.354L264.986 189.539V117.557L222.259 1.44824Z" fill="#FF0000"/>
<path d="M349.375 178.621V1.44824H431.193V35.9845H380.966V80.1201L426.193 79.1201V121.656L380.966 122.656V182.855L349.375 178.621Z" fill="#FF0000"/>
<path d="M442.813 191.149V1.44824H474.403V160.792L521.449 167.792V201.653L442.813 191.149Z" fill="#FF0000"/>
<path d="M565.81 1.44824V208.328L534.219 203.328V1.44824H565.81Z" fill="#FF0000"/>
<path d="M614.645 1.44824L633.736 66.0187H634.645L653.963 1.44824H689.19L654.418 112.388L690.5 224.448L654.5 219.448L634.645 157.457H633.736L614 213.948L578.054 209.328L613.736 112.388L579.19 1.44824H614.645Z" fill="#FF0000"/>
</g>
</svg>
